<svg xmlns="http://www.w3.org/2000/svg" xmlns:xlink="http://www.w3.org/1999/xlink" width="1360" height="1760"><g transform="translate(0 0)"><path d="M60 820h820V32H60z" stroke="#000" stroke-width="2" fill="#99d2f2"/><path d="M140 720h280V220H140z" stroke="#000" stroke-width="2" fill="#fff"/><path d="M1100.08 541.6v.1l-.08-.1h.08zM1180 529.9v4c0 5.5-17.92 9.9-39.92 9.9-22.08 0-39.92-4.4-39.92-9.9v-4c0 5.4 17.84 9.9 39.92 9.9 22 0 39.92-4.5 39.92-9.9z" fill="#1e4a76"/><path d="M1180 529.9v4c0 .2 0 .3-.08.4v-4c.08-.2.08-.3.08-.4M1179.92 530.3v4c0 .2 0 .3-.08.5v-4.1c.08-.1.08-.3.08-.4M1179.84 530.7v4.1c-.08.2-.16.4-.32.6v-4c.16-.3.24-.5.32-.7M1179.52 531.4v4c-2.88 4.8-19.44 8.4-39.44 8.4-22.08 0-39.92-4.4-39.92-9.9v-4c0 5.4 17.84 9.9 39.92 9.9 20 0 36.56-3.7 39.44-8.4" fill="#1e4a76"/><path d="M1140.08 520c22 0 39.92 4.4 39.92 9.9 0 5.4-17.92 9.9-39.92 9.9-22.08 0-39.92-4.5-39.92-9.9 0-5.5 17.84-9.9 39.92-9.9z" fill="#2e73b7"/><path d="M1179.92 604.4v4c-.08 6.3-17.92 11.4-40 11.4-22 0-39.92-5.1-39.92-11.3v-4.1c0 6.3 17.92 11.3 39.92 11.3 22.08 0 39.92-5 40-11.3z" fill="#1e4a76"/><path d="M1179.92 604.4v4c0 .2-.08.4-.08.5v-4c0-.2.08-.4.08-.5M1179.84 604.9v4c0 .2-.08.5-.16.7v-4.1c.08-.2.16-.4.16-.6" fill="#1e4a76"/><path d="M1179.68 605.5v4.1c-.08.2-.24.5-.4.7v-4c.16-.3.32-.5.4-.8M1179.28 606.3v4c-3.2 5.4-19.6 9.5-39.36 9.5-22 0-39.92-5.1-39.92-11.3v-4.1c0 6.3 17.92 11.3 39.92 11.3 19.76 0 36.16-4.1 39.36-9.4" fill="#1e4a76"/><path d="M1179.84 537.9c-2.24 5.9-17.84 9.5-39.92 9.5-21.92 0-36.96-4.1-39.84-9.8l-.08 66.8c0 6.3 17.92 11.3 39.92 11.3 22.08 0 39.92-5 40-11.3l-.08-66.5z" fill="#2e73b7"/><path d="M1113.92 558.4h14.96l11.36 32h.16l10.72-32h14.96v46.5h-10V572h-.08l-11.92 32.9h-8.16L1124 572.3h-.16v32.6h-9.92v-46.5z" fill="#fff"/><use xlink:href="#a" transform="matrix(1,0,0,1,1100,620) translate(8.549999999999997 14.4)"/><use xlink:href="#b" transform="matrix(1,0,0,1,1100,620) translate(1.5249999999999986 36)"/><path d="M199.9 320h79.6v16.5h-79.6V320z" fill="#2e73b7"/><path d="M199.9 336.5h79.6v4.4h-79.6v-4.4z" fill="#1e4a76"/><path d="M180 345.2h14.1v19.5H180v-19.5z" fill="#2e73b7"/><path d="M180 364.7h14.1v4.3H180v-4.3z" fill="#1e4a76"/><path d="M180 373.4h14.1v16.5H180v-16.5z" fill="#2e73b7"/><path d="M180 389.9h14.1v4.3H180v-4.3z" fill="#1e4a76"/><path d="M180 398.5h14.1v16.4H180v-16.4z" fill="#2e73b7"/><path d="M180 414.9h14.1v4.4H180v-4.4z" fill="#1e4a76"/><path d="M199.9 345.2h79.6v19.5h-79.6v-19.5z" fill="#2e73b7"/><path d="M199.9 364.7h79.6v4.3h-79.6v-4.3z" fill="#1e4a76"/><path d="M199.9 398.5h79.6v16.4h-79.6v-16.4z" fill="#2e73b7"/><path d="M199.9 414.9h79.6v4.4h-79.6v-4.4z" fill="#1e4a76"/><path d="M199.9 373.4h79.6v16.5h-79.6v-16.5z" fill="#2e73b7"/><path d="M199.9 389.9h79.6v4.3h-79.6v-4.3z" fill="#1e4a76"/><path d="M180 320h14.1v16.5H180V320z" fill="#2e73b7"/><path d="M180 336.5h14.1v4.4H180v-4.4z" fill="#1e4a76"/><use xlink:href="#c" transform="matrix(1,0,0,1,180,420) translate(19.574999999999996 14.4)"/><use xlink:href="#d" transform="matrix(1,0,0,1,180,420) translate(28.549999999999997 36)"/><path d="M708.4 255.9H660v-26.3h48.4v26.3z" fill="#2e73b7"/><path d="M660 255.9h48.4v3.9H660v-3.9z" fill="#1e4a76"/><path d="M714.5 229.6h46.2v26.3h-46.2v-26.3z" fill="#2e73b7"/><path d="M714.5 255.9h46.2v3.9h-46.2v-3.9z" fill="#1e4a76"/><path d="M708.4 221.8H660v-26h48.4v26z" fill="#2e73b7"/><path d="M660 221.8h48.4v3.9H660v-3.9z" fill="#1e4a76"/><path d="M708.4 188H660v-28h48.4v28z" fill="#2e73b7"/><path d="M660 188h48.4v3.9H660V188z" fill="#1e4a76"/><path d="M714.5 195.8h46.2v25.9h-46.2v-25.9z" fill="#2e73b7"/><path d="M714.5 221.8h46.2v3.9h-46.2v-3.9z" fill="#1e4a76"/><path d="M714.5 160h46.2v28h-46.2v-28z" fill="#2e73b7"/><path d="M714.5 188h46.2v3.9h-46.2V188z" fill="#1e4a76"/><path d="M685 166.1c5.2 0 9.5 3.8 9.5 8.5 0 4.8-4.3 8.6-9.5 8.6s-9.5-3.8-9.5-8.6c0-4.7 4.3-8.5 9.5-8.5zM685 200c5.2 0 9.5 3.8 9.5 8.5 0 4.8-4.3 8.6-9.5 8.6s-9.5-3.8-9.5-8.6c0-4.7 4.3-8.5 9.5-8.5zM694.5 242.8c0 4.8-4.3 8.6-9.5 8.6s-9.5-3.8-9.5-8.6c0-4.7 4.3-8.5 9.5-8.5s9.5 3.8 9.5 8.5z" fill="#f6f7f7"/><use xlink:href="#e" transform="matrix(1,0,0,1,660,260) translate(31.049999999999997 14.4)"/><use xlink:href="#f" transform="matrix(1,0,0,1,660,260) translate(15.549999999999997 36)"/><path d="M160 220h220v60H160z" fill="none"/><use xlink:href="#g" transform="matrix(1,0,0,1,165,225) translate(19.099999999999994 28.6)"/><use xlink:href="#h" transform="matrix(1,0,0,1,165,225) translate(124.95 28.6)"/><path d="M160 40h240v60H160z" fill="none"/><use xlink:href="#i" transform="matrix(1,0,0,1,165,45) translate(25.375 28.6)"/><use xlink:href="#b" transform="matrix(1,0,0,1,165,45) translate(127.675 28.6)"/><path d="M758.74 578.8l-49.37 6.2v-30l49.37 6.2v17.6z" fill="#7e985a"/><path d="M660 578.8l49.37 6.2v-30L660 561.2v17.6z" fill="#485e29"/><path d="M669.87 520h79.1v20.1h-79.1V520z" fill="#648339"/><path d="M739.1 545.2h-59.35l-9.88-5.1h79.1l-9.88 5.1z" fill="#405425"/><path d="M669.87 599.9h79.1V620h-79.1v-20.1z" fill="#648339"/><path d="M739.1 594.8h-59.35l-9.88 5.1h79.1l-9.88-5.1z" fill="#9baf7f"/><use xlink:href="#c" transform="matrix(1,0,0,1,660,620) translate(19.074999999999996 14.4)"/><use xlink:href="#j" transform="matrix(1,0,0,1,660,620) translate(30.525 36)"/><use xlink:href="#k" transform="matrix(1,0,0,1,660,620) translate(15.25 57.6)"/><path d="M278.74 580H660" stroke="#000" stroke-width="2" fill="none"/><path d="M278.74 581h-.9v-2h.9zM660 580l-14.27 4.64v-9.28z"/><path d="M663.24 580l-18.5 6v-12zm-16.5 3.26l10.02-3.26-10.03-3.26z"/><path d="M710 280v240" stroke="#000" stroke-width="2" fill="none"/><path d="M711 280h-2v-3h2zM710 520l-4.64-14.27h9.28z"/><path d="M711.05 520h-2.1L704 504.73h12zm-4.3-13.27l3.25 10.03 3.26-10.03z"/><path d="M758.74 580h341.3" stroke="#000" stroke-width="2" fill="none"/><path d="M758.74 581h-3v-1.82l1.4-.18h1.6zM1100.03 580l-14.27 4.64v-9.28z"/><path d="M1100.03 578.95v2.1l-15.27 4.96v-12zm-13.27 4.3l10.03-3.25-10.04-3.26z"/><path d="M244.14 629.16l22.1-11.88v-95.52L244.04 510l.1 119.16z" fill="#518ac3"/><path d="M212.54 629.16l-22.2-11.88v-95.52l22.2-11.76v119.16z" fill="#215283"/><path d="M212.54 510h31.5v119.16h-31.5V510zM266.24 599.16v18.12l11.6-14.52v-12.48l-11.5 8.88h-.1zM266.34 540l11.5 8.88v-12.6l-11.6-14.52V540h.1zM266.24 591.48h.1l11.5-6.6v-12.6l-11.6 1.08v18.12zM266.34 547.68h-.1v18l11.6 1.2v-12.6l-11.5-6.6z" fill="#2e73b7"/><path d="M277.84 566.88l-11.6-1.2-22.2-.84h-31.5l-22.2.84v-18l22.2-5.52h31.5l22.2 5.52 8.2 4.56v-2.88l3.4-.48-11.6-8.88-22.2-7.44h-31.5l-22.2 7.44v-18.24l-11.6 14.52V549l.1-.12 3.3.48v3l-3.4 1.92v12.6h.1l3.3.12v5.28h-3.4v12.6l3.4 1.92v3.12l-3.3.36-.1-.12v12.6l11.6 14.52v-18.12l22.2 7.32h31.5l22.3-7.32 11.5-8.88-3.4-.36v-3l-8.1 4.56-22.3 5.52h-31.5l-22.3-5.52h.1v-18.12l22.2.96h31.5l22.2-.96 11.6-1.08h-3.4V567l3.4-.12z" fill="#1e4a76"/><g><use xlink:href="#l" transform="matrix(1,0,0,1,178.73786407766988,630) translate(23.549999999999997 14.4)"/></g><path d="M230 440v70" stroke="#000" stroke-width="2" fill="none"/><path d="M231 440h-2v-3h2zM230 510l-4.64-14.27h9.28z"/><path d="M231.05 510h-2.1L224 494.73h12zm-4.3-13.27l3.25 10.03 3.26-10.03z"/><defs><path d="M233-177c-1 41-23 64-60 70L243 0h-38l-65-103H63V0H30v-248c88 3 205-21 203 71zM63-129c60-2 137 13 137-47 0-61-80-42-137-45v92" id="m"/><path d="M100-194c63 0 86 42 84 106H49c0 40 14 67 53 68 26 1 43-12 49-29l28 8c-11 28-37 45-77 45C44 4 14-33 15-96c1-61 26-98 85-98zm52 81c6-60-76-77-97-28-3 7-6 17-6 28h103" id="n"/><path d="M210-169c-67 3-38 105-44 169h-31v-121c0-29-5-50-35-48C34-165 62-65 56 0H25l-1-190h30c1 10-1 24 2 32 10-44 99-50 107 0 11-21 27-35 58-36 85-2 47 119 55 194h-31v-121c0-29-5-49-35-48" id="o"/><path d="M100-194c62-1 85 37 85 99 1 63-27 99-86 99S16-35 15-95c0-66 28-99 85-99zM99-20c44 1 53-31 53-75 0-43-8-75-51-75s-53 32-53 75 10 74 51 75" id="p"/><path d="M59-47c-2 24 18 29 38 22v24C64 9 27 4 27-40v-127H5v-23h24l9-43h21v43h35v23H59v120" id="q"/><g id="a"><use transform="matrix(0.05,0,0,0.05,0,0)" xlink:href="#m"/><use transform="matrix(0.05,0,0,0.05,12.950000000000001,0)" xlink:href="#n"/><use transform="matrix(0.05,0,0,0.05,22.950000000000003,0)" xlink:href="#o"/><use transform="matrix(0.05,0,0,0.05,37.900000000000006,0)" xlink:href="#p"/><use transform="matrix(0.05,0,0,0.05,47.900000000000006,0)" xlink:href="#q"/><use transform="matrix(0.05,0,0,0.05,52.900000000000006,0)" xlink:href="#n"/></g><path d="M30-248c118-7 216 8 213 122C240-48 200 0 122 0H30v-248zM63-27c89 8 146-16 146-99s-60-101-146-95v194" id="r"/><path d="M141-36C126-15 110 5 73 4 37 3 15-17 15-53c-1-64 63-63 125-63 3-35-9-54-41-54-24 1-41 7-42 31l-33-3c5-37 33-52 76-52 45 0 72 20 72 64v82c-1 20 7 32 28 27v20c-31 9-61-2-59-35zM48-53c0 20 12 33 32 33 41-3 63-29 60-74-43 2-92-5-92 41" id="s"/><path d="M115-194c53 0 69 39 70 98 0 66-23 100-70 100C84 3 66-7 56-30L54 0H23l1-261h32v101c10-23 28-34 59-34zm-8 174c40 0 45-34 45-75 0-40-5-75-45-74-42 0-51 32-51 76 0 43 10 73 51 73" id="t"/><path d="M135-143c-3-34-86-38-87 0 15 53 115 12 119 90S17 21 10-45l28-5c4 36 97 45 98 0-10-56-113-15-118-90-4-57 82-63 122-42 12 7 21 19 24 35" id="u"/><g id="b"><use transform="matrix(0.05,0,0,0.05,0,0)" xlink:href="#r"/><use transform="matrix(0.05,0,0,0.05,12.950000000000001,0)" xlink:href="#s"/><use transform="matrix(0.05,0,0,0.05,22.950000000000003,0)" xlink:href="#q"/><use transform="matrix(0.05,0,0,0.05,27.950000000000003,0)" xlink:href="#s"/><use transform="matrix(0.05,0,0,0.05,37.95,0)" xlink:href="#t"/><use transform="matrix(0.05,0,0,0.05,47.95,0)" xlink:href="#s"/><use transform="matrix(0.05,0,0,0.05,57.95,0)" xlink:href="#u"/><use transform="matrix(0.05,0,0,0.05,66.95,0)" xlink:href="#n"/></g><path d="M63-220v92h138v28H63V0H30v-248h175v28H63" id="v"/><path d="M114-163C36-179 61-72 57 0H25l-1-190h30c1 12-1 29 2 39 6-27 23-49 58-41v29" id="w"/><path d="M24-231v-30h32v30H24zM24 0v-190h32V0H24" id="x"/><path d="M177-190C167-65 218 103 67 71c-23-6-38-20-44-43l32-5c15 47 100 32 89-28v-30C133-14 115 1 83 1 29 1 15-40 15-95c0-56 16-97 71-98 29-1 48 16 59 35 1-10 0-23 2-32h30zM94-22c36 0 50-32 50-73 0-42-14-75-50-75-39 0-46 34-46 75s6 73 46 73" id="y"/><path d="M117-194c89-4 53 116 60 194h-32v-121c0-31-8-49-39-48C34-167 62-67 57 0H25l-1-190h30c1 10-1 24 2 32 11-22 29-35 61-36" id="z"/><g id="c"><use transform="matrix(0.05,0,0,0.05,0,0)" xlink:href="#v"/><use transform="matrix(0.05,0,0,0.05,10.950000000000001,0)" xlink:href="#p"/><use transform="matrix(0.05,0,0,0.05,20.950000000000003,0)" xlink:href="#w"/><use transform="matrix(0.05,0,0,0.05,26.900000000000002,0)" xlink:href="#n"/><use transform="matrix(0.05,0,0,0.05,36.900000000000006,0)" xlink:href="#x"/><use transform="matrix(0.05,0,0,0.05,40.85000000000001,0)" xlink:href="#y"/><use transform="matrix(0.05,0,0,0.05,50.85000000000001,0)" xlink:href="#z"/></g><path d="M127-220V0H93v-220H8v-28h204v28h-85" id="A"/><path d="M24 0v-261h32V0H24" id="B"/><g id="d"><use transform="matrix(0.05,0,0,0.05,0,0)" xlink:href="#A"/><use transform="matrix(0.05,0,0,0.05,8.950000000000001,0)" xlink:href="#s"/><use transform="matrix(0.05,0,0,0.05,18.950000000000003,0)" xlink:href="#t"/><use transform="matrix(0.05,0,0,0.05,28.950000000000003,0)" xlink:href="#B"/><use transform="matrix(0.05,0,0,0.05,32.900000000000006,0)" xlink:href="#n"/></g><path d="M232-93c-1 65-40 97-104 97C67 4 28-28 28-90v-158h33c8 89-33 224 67 224 102 0 64-133 71-224h33v155" id="C"/><g id="e"><use transform="matrix(0.05,0,0,0.05,0,0)" xlink:href="#C"/><use transform="matrix(0.05,0,0,0.05,12.950000000000001,0)" xlink:href="#u"/><use transform="matrix(0.05,0,0,0.05,21.950000000000003,0)" xlink:href="#n"/><use transform="matrix(0.05,0,0,0.05,31.950000000000003,0)" xlink:href="#w"/></g><path d="M240 0l2-218c-23 76-54 145-80 218h-23L58-218 59 0H30v-248h44l77 211c21-75 51-140 76-211h43V0h-30" id="D"/><path d="M115-194c55 1 70 41 70 98S169 2 115 4C84 4 66-9 55-30l1 105H24l-1-265h31l2 30c10-21 28-34 59-34zm-8 174c40 0 45-34 45-75s-6-73-45-74c-42 0-51 32-51 76 0 43 10 73 51 73" id="E"/><g id="f"><use transform="matrix(0.05,0,0,0.05,0,0)" xlink:href="#D"/><use transform="matrix(0.05,0,0,0.05,14.950000000000001,0)" xlink:href="#s"/><use transform="matrix(0.05,0,0,0.05,24.950000000000003,0)" xlink:href="#E"/><use transform="matrix(0.05,0,0,0.05,34.95,0)" xlink:href="#E"/><use transform="matrix(0.05,0,0,0.05,44.95,0)" xlink:href="#x"/><use transform="matrix(0.05,0,0,0.05,48.900000000000006,0)" xlink:href="#z"/><use transform="matrix(0.05,0,0,0.05,58.900000000000006,0)" xlink:href="#y"/></g><g id="g"><use transform="matrix(0.05,0,0,0.05,0,0)" xlink:href="#m"/><use transform="matrix(0.05,0,0,0.05,12.950000000000001,0)" xlink:href="#n"/><use transform="matrix(0.05,0,0,0.05,22.950000000000003,0)" xlink:href="#o"/><use transform="matrix(0.05,0,0,0.05,37.900000000000006,0)" xlink:href="#p"/><use transform="matrix(0.05,0,0,0.05,47.900000000000006,0)" xlink:href="#q"/><use transform="matrix(0.05,0,0,0.05,52.900000000000006,0)" xlink:href="#n"/><use transform="matrix(0.05,0,0,0.05,62.900000000000006,0)" xlink:href="#r"/><use transform="matrix(0.05,0,0,0.05,75.85000000000001,0)" xlink:href="#s"/><use transform="matrix(0.05,0,0,0.05,85.85000000000001,0)" xlink:href="#q"/><use transform="matrix(0.05,0,0,0.05,90.85000000000001,0)" xlink:href="#s"/></g><path d="M185-189c-5-48-123-54-124 2 14 75 158 14 163 119 3 78-121 87-175 55-17-10-28-26-33-46l33-7c5 56 141 63 141-1 0-78-155-14-162-118-5-82 145-84 179-34 5 7 8 16 11 25" id="F"/><path d="M96-169c-40 0-48 33-48 73s9 75 48 75c24 0 41-14 43-38l32 2c-6 37-31 61-74 61-59 0-76-41-82-99-10-93 101-131 147-64 4 7 5 14 7 22l-32 3c-4-21-16-35-41-35" id="G"/><path d="M106-169C34-169 62-67 57 0H25v-261h32l-1 103c12-21 28-36 61-36 89 0 53 116 60 194h-32v-121c2-32-8-49-39-48" id="H"/><g id="h"><use transform="matrix(0.05,0,0,0.05,0,0)" xlink:href="#F"/><use transform="matrix(0.05,0,0,0.05,12,0)" xlink:href="#G"/><use transform="matrix(0.05,0,0,0.05,21,0)" xlink:href="#H"/><use transform="matrix(0.05,0,0,0.05,31,0)" xlink:href="#n"/><use transform="matrix(0.05,0,0,0.05,41,0)" xlink:href="#o"/><use transform="matrix(0.05,0,0,0.05,55.95,0)" xlink:href="#s"/></g><path d="M30-248c87 1 191-15 191 75 0 78-77 80-158 76V0H30v-248zm33 125c57 0 124 11 124-50 0-59-68-47-124-48v98" id="I"/><path d="M140-251c81 0 123 46 123 126C263-53 228-8 163 1c7 30 30 48 69 40v23c-55 16-95-15-103-61C56-3 17-48 17-125c0-80 42-126 123-126zm0 227c63 0 89-41 89-101s-29-99-89-99c-61 0-89 39-89 99S79-25 140-24" id="J"/><path d="M30 0v-248h33v221h125V0H30" id="K"/><g id="i"><use transform="matrix(0.05,0,0,0.05,0,0)" xlink:href="#I"/><use transform="matrix(0.05,0,0,0.05,12,0)" xlink:href="#p"/><use transform="matrix(0.05,0,0,0.05,22,0)" xlink:href="#u"/><use transform="matrix(0.05,0,0,0.05,31,0)" xlink:href="#q"/><use transform="matrix(0.05,0,0,0.05,36,0)" xlink:href="#y"/><use transform="matrix(0.05,0,0,0.05,46,0)" xlink:href="#w"/><use transform="matrix(0.05,0,0,0.05,51.95,0)" xlink:href="#n"/><use transform="matrix(0.05,0,0,0.05,61.95,0)" xlink:href="#F"/><use transform="matrix(0.05,0,0,0.05,73.95,0)" xlink:href="#J"/><use transform="matrix(0.05,0,0,0.05,87.95,0)" xlink:href="#K"/></g><g id="j"><use transform="matrix(0.05,0,0,0.05,0,0)" xlink:href="#r"/><use transform="matrix(0.05,0,0,0.05,12.950000000000001,0)" xlink:href="#s"/><use transform="matrix(0.05,0,0,0.05,22.950000000000003,0)" xlink:href="#q"/><use transform="matrix(0.05,0,0,0.05,27.950000000000003,0)" xlink:href="#s"/></g><path d="M266 0h-40l-56-210L115 0H75L2-248h35L96-30l15-64 43-154h32l59 218 59-218h35" id="L"/><g id="k"><use transform="matrix(0.05,0,0,0.05,0,0)" xlink:href="#L"/><use transform="matrix(0.05,0,0,0.05,16.599999999999998,0)" xlink:href="#w"/><use transform="matrix(0.05,0,0,0.05,22.549999999999997,0)" xlink:href="#s"/><use transform="matrix(0.05,0,0,0.05,32.55,0)" xlink:href="#E"/><use transform="matrix(0.05,0,0,0.05,42.55,0)" xlink:href="#E"/><use transform="matrix(0.05,0,0,0.05,52.54999999999999,0)" xlink:href="#n"/><use transform="matrix(0.05,0,0,0.05,62.54999999999999,0)" xlink:href="#w"/></g><path d="M108 0H70L1-190h34L89-25l56-165h34" id="M"/><g id="l"><use transform="matrix(0.05,0,0,0.05,0,0)" xlink:href="#F"/><use transform="matrix(0.05,0,0,0.05,12,0)" xlink:href="#n"/><use transform="matrix(0.05,0,0,0.05,22,0)" xlink:href="#w"/><use transform="matrix(0.05,0,0,0.05,27.950000000000003,0)" xlink:href="#M"/><use transform="matrix(0.05,0,0,0.05,36.95,0)" xlink:href="#n"/><use transform="matrix(0.05,0,0,0.05,46.95,0)" xlink:href="#w"/></g></defs></g></svg>